<mxfile host="app.diagrams.net" agent="Mozilla/5.0 (X11; Ubuntu; Linux x86_64; rv:138.0) Gecko/20100101 Firefox/138.0" version="26.2.14">
  <diagram name="Page-1" id="EWrfhbIGY1pm8yMYNPdw">
    <mxGraphModel dx="815" dy="456" grid="1" gridSize="10" guides="1" tooltips="1" connect="1" arrows="1" fold="1" page="1" pageScale="1" pageWidth="850" pageHeight="1100" math="0" shadow="0">
      <root>
        <mxCell id="0" />
        <mxCell id="1" parent="0" />
        <mxCell id="vVkB0DryfgJ7hiZi65OE-16" value="" style="ellipse;whiteSpace=wrap;html=1;aspect=fixed;fillColor=#E6E6E6;" vertex="1" parent="1">
          <mxGeometry x="182.5" y="57.5" width="285" height="285" as="geometry" />
        </mxCell>
        <mxCell id="vVkB0DryfgJ7hiZi65OE-19" style="rounded=0;orthogonalLoop=1;jettySize=auto;html=1;exitX=1;exitY=0.5;exitDx=0;exitDy=0;entryX=0;entryY=0.5;entryDx=0;entryDy=0;" edge="1" parent="1" source="vVkB0DryfgJ7hiZi65OE-1" target="vVkB0DryfgJ7hiZi65OE-6">
          <mxGeometry relative="1" as="geometry" />
        </mxCell>
        <mxCell id="vVkB0DryfgJ7hiZi65OE-24" style="rounded=0;orthogonalLoop=1;jettySize=auto;html=1;exitX=1;exitY=0.5;exitDx=0;exitDy=0;entryX=0;entryY=0.5;entryDx=0;entryDy=0;" edge="1" parent="1" source="vVkB0DryfgJ7hiZi65OE-1" target="vVkB0DryfgJ7hiZi65OE-15">
          <mxGeometry relative="1" as="geometry" />
        </mxCell>
        <mxCell id="vVkB0DryfgJ7hiZi65OE-25" style="rounded=0;orthogonalLoop=1;jettySize=auto;html=1;exitX=1;exitY=0.5;exitDx=0;exitDy=0;entryX=0;entryY=0.5;entryDx=0;entryDy=0;" edge="1" parent="1" source="vVkB0DryfgJ7hiZi65OE-1" target="vVkB0DryfgJ7hiZi65OE-12">
          <mxGeometry relative="1" as="geometry" />
        </mxCell>
        <mxCell id="vVkB0DryfgJ7hiZi65OE-1" value="" style="ellipse;whiteSpace=wrap;html=1;aspect=fixed;" vertex="1" parent="1">
          <mxGeometry x="80" y="80" width="40" height="40" as="geometry" />
        </mxCell>
        <mxCell id="vVkB0DryfgJ7hiZi65OE-26" style="rounded=0;orthogonalLoop=1;jettySize=auto;html=1;exitX=1;exitY=0.5;exitDx=0;exitDy=0;entryX=0;entryY=0.5;entryDx=0;entryDy=0;" edge="1" parent="1" source="vVkB0DryfgJ7hiZi65OE-2" target="vVkB0DryfgJ7hiZi65OE-6">
          <mxGeometry relative="1" as="geometry" />
        </mxCell>
        <mxCell id="vVkB0DryfgJ7hiZi65OE-27" style="rounded=0;orthogonalLoop=1;jettySize=auto;html=1;exitX=1;exitY=0.5;exitDx=0;exitDy=0;entryX=0;entryY=0.5;entryDx=0;entryDy=0;" edge="1" parent="1" source="vVkB0DryfgJ7hiZi65OE-2" target="vVkB0DryfgJ7hiZi65OE-15">
          <mxGeometry relative="1" as="geometry" />
        </mxCell>
        <mxCell id="vVkB0DryfgJ7hiZi65OE-28" style="rounded=0;orthogonalLoop=1;jettySize=auto;html=1;exitX=1;exitY=0.5;exitDx=0;exitDy=0;entryX=0;entryY=0.5;entryDx=0;entryDy=0;" edge="1" parent="1" source="vVkB0DryfgJ7hiZi65OE-2" target="vVkB0DryfgJ7hiZi65OE-12">
          <mxGeometry relative="1" as="geometry" />
        </mxCell>
        <mxCell id="vVkB0DryfgJ7hiZi65OE-2" value="" style="ellipse;whiteSpace=wrap;html=1;aspect=fixed;" vertex="1" parent="1">
          <mxGeometry x="80" y="140" width="40" height="40" as="geometry" />
        </mxCell>
        <mxCell id="vVkB0DryfgJ7hiZi65OE-29" style="rounded=0;orthogonalLoop=1;jettySize=auto;html=1;exitX=1;exitY=0.5;exitDx=0;exitDy=0;entryX=0;entryY=0.5;entryDx=0;entryDy=0;" edge="1" parent="1" source="vVkB0DryfgJ7hiZi65OE-3" target="vVkB0DryfgJ7hiZi65OE-6">
          <mxGeometry relative="1" as="geometry" />
        </mxCell>
        <mxCell id="vVkB0DryfgJ7hiZi65OE-30" style="rounded=0;orthogonalLoop=1;jettySize=auto;html=1;exitX=1;exitY=0.5;exitDx=0;exitDy=0;entryX=0;entryY=0.5;entryDx=0;entryDy=0;" edge="1" parent="1" source="vVkB0DryfgJ7hiZi65OE-3" target="vVkB0DryfgJ7hiZi65OE-15">
          <mxGeometry relative="1" as="geometry" />
        </mxCell>
        <mxCell id="vVkB0DryfgJ7hiZi65OE-31" style="rounded=0;orthogonalLoop=1;jettySize=auto;html=1;exitX=1;exitY=0.5;exitDx=0;exitDy=0;entryX=0;entryY=0.5;entryDx=0;entryDy=0;" edge="1" parent="1" source="vVkB0DryfgJ7hiZi65OE-3" target="vVkB0DryfgJ7hiZi65OE-12">
          <mxGeometry relative="1" as="geometry" />
        </mxCell>
        <mxCell id="vVkB0DryfgJ7hiZi65OE-3" value="" style="ellipse;whiteSpace=wrap;html=1;aspect=fixed;" vertex="1" parent="1">
          <mxGeometry x="80" y="200" width="40" height="40" as="geometry" />
        </mxCell>
        <mxCell id="vVkB0DryfgJ7hiZi65OE-32" style="rounded=0;orthogonalLoop=1;jettySize=auto;html=1;exitX=1;exitY=0.5;exitDx=0;exitDy=0;entryX=0;entryY=0.5;entryDx=0;entryDy=0;" edge="1" parent="1" source="vVkB0DryfgJ7hiZi65OE-4" target="vVkB0DryfgJ7hiZi65OE-6">
          <mxGeometry relative="1" as="geometry" />
        </mxCell>
        <mxCell id="vVkB0DryfgJ7hiZi65OE-34" style="rounded=0;orthogonalLoop=1;jettySize=auto;html=1;exitX=1;exitY=0.5;exitDx=0;exitDy=0;entryX=0;entryY=0.5;entryDx=0;entryDy=0;" edge="1" parent="1" source="vVkB0DryfgJ7hiZi65OE-4" target="vVkB0DryfgJ7hiZi65OE-15">
          <mxGeometry relative="1" as="geometry" />
        </mxCell>
        <mxCell id="vVkB0DryfgJ7hiZi65OE-35" style="rounded=0;orthogonalLoop=1;jettySize=auto;html=1;exitX=1;exitY=0.5;exitDx=0;exitDy=0;entryX=0;entryY=0.5;entryDx=0;entryDy=0;" edge="1" parent="1" source="vVkB0DryfgJ7hiZi65OE-4" target="vVkB0DryfgJ7hiZi65OE-12">
          <mxGeometry relative="1" as="geometry" />
        </mxCell>
        <mxCell id="vVkB0DryfgJ7hiZi65OE-4" value="" style="ellipse;whiteSpace=wrap;html=1;aspect=fixed;" vertex="1" parent="1">
          <mxGeometry x="80" y="260" width="40" height="40" as="geometry" />
        </mxCell>
        <mxCell id="vVkB0DryfgJ7hiZi65OE-36" style="rounded=0;orthogonalLoop=1;jettySize=auto;html=1;exitX=1;exitY=0.5;exitDx=0;exitDy=0;entryX=0;entryY=0.5;entryDx=0;entryDy=0;" edge="1" parent="1" source="vVkB0DryfgJ7hiZi65OE-5" target="vVkB0DryfgJ7hiZi65OE-6">
          <mxGeometry relative="1" as="geometry" />
        </mxCell>
        <mxCell id="vVkB0DryfgJ7hiZi65OE-37" style="rounded=0;orthogonalLoop=1;jettySize=auto;html=1;exitX=1;exitY=0.5;exitDx=0;exitDy=0;entryX=0;entryY=0.5;entryDx=0;entryDy=0;" edge="1" parent="1" source="vVkB0DryfgJ7hiZi65OE-5" target="vVkB0DryfgJ7hiZi65OE-15">
          <mxGeometry relative="1" as="geometry" />
        </mxCell>
        <mxCell id="vVkB0DryfgJ7hiZi65OE-38" style="rounded=0;orthogonalLoop=1;jettySize=auto;html=1;exitX=1;exitY=0.5;exitDx=0;exitDy=0;entryX=0;entryY=0.5;entryDx=0;entryDy=0;" edge="1" parent="1" source="vVkB0DryfgJ7hiZi65OE-5" target="vVkB0DryfgJ7hiZi65OE-12">
          <mxGeometry relative="1" as="geometry" />
        </mxCell>
        <mxCell id="vVkB0DryfgJ7hiZi65OE-5" value="" style="ellipse;whiteSpace=wrap;html=1;aspect=fixed;" vertex="1" parent="1">
          <mxGeometry x="80" y="320" width="40" height="40" as="geometry" />
        </mxCell>
        <mxCell id="vVkB0DryfgJ7hiZi65OE-45" style="edgeStyle=orthogonalEdgeStyle;rounded=0;orthogonalLoop=1;jettySize=auto;html=1;exitX=1;exitY=0.5;exitDx=0;exitDy=0;entryX=0;entryY=0.5;entryDx=0;entryDy=0;curved=1;" edge="1" parent="1" source="vVkB0DryfgJ7hiZi65OE-6" target="vVkB0DryfgJ7hiZi65OE-9">
          <mxGeometry relative="1" as="geometry" />
        </mxCell>
        <mxCell id="vVkB0DryfgJ7hiZi65OE-6" value="" style="ellipse;whiteSpace=wrap;html=1;aspect=fixed;" vertex="1" parent="1">
          <mxGeometry x="230" y="120" width="30" height="30" as="geometry" />
        </mxCell>
        <mxCell id="vVkB0DryfgJ7hiZi65OE-50" style="edgeStyle=orthogonalEdgeStyle;rounded=0;orthogonalLoop=1;jettySize=auto;html=1;exitX=0.5;exitY=1;exitDx=0;exitDy=0;entryX=1;entryY=0.5;entryDx=0;entryDy=0;curved=1;" edge="1" parent="1" source="vVkB0DryfgJ7hiZi65OE-7" target="vVkB0DryfgJ7hiZi65OE-14">
          <mxGeometry relative="1" as="geometry" />
        </mxCell>
        <mxCell id="vVkB0DryfgJ7hiZi65OE-7" value="" style="ellipse;whiteSpace=wrap;html=1;aspect=fixed;" vertex="1" parent="1">
          <mxGeometry x="340" y="140" width="30" height="30" as="geometry" />
        </mxCell>
        <mxCell id="vVkB0DryfgJ7hiZi65OE-42" style="edgeStyle=orthogonalEdgeStyle;rounded=0;orthogonalLoop=1;jettySize=auto;html=1;exitX=1;exitY=1;exitDx=0;exitDy=0;entryX=0;entryY=0.5;entryDx=0;entryDy=0;curved=1;" edge="1" parent="1" source="vVkB0DryfgJ7hiZi65OE-8" target="vVkB0DryfgJ7hiZi65OE-10">
          <mxGeometry relative="1" as="geometry" />
        </mxCell>
        <mxCell id="vVkB0DryfgJ7hiZi65OE-8" value="" style="ellipse;whiteSpace=wrap;html=1;aspect=fixed;" vertex="1" parent="1">
          <mxGeometry x="287.5" y="160" width="30" height="30" as="geometry" />
        </mxCell>
        <mxCell id="vVkB0DryfgJ7hiZi65OE-53" style="edgeStyle=orthogonalEdgeStyle;rounded=0;orthogonalLoop=1;jettySize=auto;html=1;exitX=1;exitY=0.5;exitDx=0;exitDy=0;curved=1;" edge="1" parent="1" source="vVkB0DryfgJ7hiZi65OE-9" target="vVkB0DryfgJ7hiZi65OE-17">
          <mxGeometry relative="1" as="geometry" />
        </mxCell>
        <mxCell id="vVkB0DryfgJ7hiZi65OE-9" value="" style="ellipse;whiteSpace=wrap;html=1;aspect=fixed;" vertex="1" parent="1">
          <mxGeometry x="340" y="90" width="30" height="30" as="geometry" />
        </mxCell>
        <mxCell id="vVkB0DryfgJ7hiZi65OE-43" style="edgeStyle=orthogonalEdgeStyle;rounded=0;orthogonalLoop=1;jettySize=auto;html=1;exitX=0.5;exitY=0;exitDx=0;exitDy=0;entryX=1;entryY=0.5;entryDx=0;entryDy=0;curved=1;" edge="1" parent="1" source="vVkB0DryfgJ7hiZi65OE-10" target="vVkB0DryfgJ7hiZi65OE-7">
          <mxGeometry relative="1" as="geometry" />
        </mxCell>
        <mxCell id="vVkB0DryfgJ7hiZi65OE-60" style="rounded=0;orthogonalLoop=1;jettySize=auto;html=1;exitX=1;exitY=0.5;exitDx=0;exitDy=0;entryX=0;entryY=0.5;entryDx=0;entryDy=0;" edge="1" parent="1" source="vVkB0DryfgJ7hiZi65OE-10" target="vVkB0DryfgJ7hiZi65OE-54">
          <mxGeometry relative="1" as="geometry" />
        </mxCell>
        <mxCell id="vVkB0DryfgJ7hiZi65OE-61" style="rounded=0;orthogonalLoop=1;jettySize=auto;html=1;exitX=1;exitY=0.5;exitDx=0;exitDy=0;entryX=0;entryY=0.5;entryDx=0;entryDy=0;" edge="1" parent="1" source="vVkB0DryfgJ7hiZi65OE-10" target="vVkB0DryfgJ7hiZi65OE-55">
          <mxGeometry relative="1" as="geometry" />
        </mxCell>
        <mxCell id="vVkB0DryfgJ7hiZi65OE-62" style="rounded=0;orthogonalLoop=1;jettySize=auto;html=1;exitX=1;exitY=0.5;exitDx=0;exitDy=0;entryX=0;entryY=0.5;entryDx=0;entryDy=0;" edge="1" parent="1" source="vVkB0DryfgJ7hiZi65OE-10" target="vVkB0DryfgJ7hiZi65OE-56">
          <mxGeometry relative="1" as="geometry" />
        </mxCell>
        <mxCell id="vVkB0DryfgJ7hiZi65OE-10" value="" style="ellipse;whiteSpace=wrap;html=1;aspect=fixed;" vertex="1" parent="1">
          <mxGeometry x="380" y="200" width="30" height="30" as="geometry" />
        </mxCell>
        <mxCell id="vVkB0DryfgJ7hiZi65OE-48" style="edgeStyle=orthogonalEdgeStyle;rounded=0;orthogonalLoop=1;jettySize=auto;html=1;exitX=1;exitY=0.5;exitDx=0;exitDy=0;entryX=0.5;entryY=0;entryDx=0;entryDy=0;curved=1;" edge="1" parent="1" source="vVkB0DryfgJ7hiZi65OE-11" target="vVkB0DryfgJ7hiZi65OE-13">
          <mxGeometry relative="1" as="geometry" />
        </mxCell>
        <mxCell id="vVkB0DryfgJ7hiZi65OE-11" value="" style="ellipse;whiteSpace=wrap;html=1;aspect=fixed;" vertex="1" parent="1">
          <mxGeometry x="310" y="230" width="30" height="30" as="geometry" />
        </mxCell>
        <mxCell id="vVkB0DryfgJ7hiZi65OE-47" style="edgeStyle=orthogonalEdgeStyle;rounded=0;orthogonalLoop=1;jettySize=auto;html=1;exitX=1;exitY=0.5;exitDx=0;exitDy=0;entryX=0;entryY=0.5;entryDx=0;entryDy=0;curved=1;" edge="1" parent="1" source="vVkB0DryfgJ7hiZi65OE-12" target="vVkB0DryfgJ7hiZi65OE-11">
          <mxGeometry relative="1" as="geometry" />
        </mxCell>
        <mxCell id="vVkB0DryfgJ7hiZi65OE-12" value="" style="ellipse;whiteSpace=wrap;html=1;aspect=fixed;" vertex="1" parent="1">
          <mxGeometry x="250" y="260" width="30" height="30" as="geometry" />
        </mxCell>
        <mxCell id="vVkB0DryfgJ7hiZi65OE-63" style="rounded=0;orthogonalLoop=1;jettySize=auto;html=1;exitX=1;exitY=0.5;exitDx=0;exitDy=0;entryX=0;entryY=0.5;entryDx=0;entryDy=0;" edge="1" parent="1" source="vVkB0DryfgJ7hiZi65OE-13" target="vVkB0DryfgJ7hiZi65OE-54">
          <mxGeometry relative="1" as="geometry" />
        </mxCell>
        <mxCell id="vVkB0DryfgJ7hiZi65OE-64" style="rounded=0;orthogonalLoop=1;jettySize=auto;html=1;exitX=1;exitY=0.5;exitDx=0;exitDy=0;entryX=0;entryY=0.5;entryDx=0;entryDy=0;" edge="1" parent="1" source="vVkB0DryfgJ7hiZi65OE-13" target="vVkB0DryfgJ7hiZi65OE-55">
          <mxGeometry relative="1" as="geometry" />
        </mxCell>
        <mxCell id="vVkB0DryfgJ7hiZi65OE-65" style="rounded=0;orthogonalLoop=1;jettySize=auto;html=1;exitX=1;exitY=0.5;exitDx=0;exitDy=0;entryX=0;entryY=0.5;entryDx=0;entryDy=0;" edge="1" parent="1" source="vVkB0DryfgJ7hiZi65OE-13" target="vVkB0DryfgJ7hiZi65OE-56">
          <mxGeometry relative="1" as="geometry" />
        </mxCell>
        <mxCell id="vVkB0DryfgJ7hiZi65OE-13" value="" style="ellipse;whiteSpace=wrap;html=1;aspect=fixed;" vertex="1" parent="1">
          <mxGeometry x="370" y="265" width="30" height="30" as="geometry" />
        </mxCell>
        <mxCell id="vVkB0DryfgJ7hiZi65OE-52" style="edgeStyle=orthogonalEdgeStyle;rounded=0;orthogonalLoop=1;jettySize=auto;html=1;exitX=0;exitY=0.5;exitDx=0;exitDy=0;entryX=0.5;entryY=1;entryDx=0;entryDy=0;curved=1;" edge="1" parent="1" source="vVkB0DryfgJ7hiZi65OE-14" target="vVkB0DryfgJ7hiZi65OE-12">
          <mxGeometry relative="1" as="geometry" />
        </mxCell>
        <mxCell id="vVkB0DryfgJ7hiZi65OE-14" value="" style="ellipse;whiteSpace=wrap;html=1;aspect=fixed;" vertex="1" parent="1">
          <mxGeometry x="300" y="290" width="30" height="30" as="geometry" />
        </mxCell>
        <mxCell id="vVkB0DryfgJ7hiZi65OE-44" style="edgeStyle=orthogonalEdgeStyle;rounded=0;orthogonalLoop=1;jettySize=auto;html=1;exitX=1;exitY=0.5;exitDx=0;exitDy=0;entryX=0.5;entryY=1;entryDx=0;entryDy=0;curved=1;" edge="1" parent="1" source="vVkB0DryfgJ7hiZi65OE-15" target="vVkB0DryfgJ7hiZi65OE-8">
          <mxGeometry relative="1" as="geometry" />
        </mxCell>
        <mxCell id="vVkB0DryfgJ7hiZi65OE-15" value="" style="ellipse;whiteSpace=wrap;html=1;aspect=fixed;" vertex="1" parent="1">
          <mxGeometry x="240" y="190" width="30" height="30" as="geometry" />
        </mxCell>
        <mxCell id="vVkB0DryfgJ7hiZi65OE-57" style="rounded=0;orthogonalLoop=1;jettySize=auto;html=1;exitX=1;exitY=0.5;exitDx=0;exitDy=0;entryX=0;entryY=0.5;entryDx=0;entryDy=0;" edge="1" parent="1" source="vVkB0DryfgJ7hiZi65OE-17" target="vVkB0DryfgJ7hiZi65OE-54">
          <mxGeometry relative="1" as="geometry" />
        </mxCell>
        <mxCell id="vVkB0DryfgJ7hiZi65OE-58" style="rounded=0;orthogonalLoop=1;jettySize=auto;html=1;exitX=1;exitY=0.5;exitDx=0;exitDy=0;entryX=0;entryY=0.5;entryDx=0;entryDy=0;" edge="1" parent="1" source="vVkB0DryfgJ7hiZi65OE-17" target="vVkB0DryfgJ7hiZi65OE-55">
          <mxGeometry relative="1" as="geometry" />
        </mxCell>
        <mxCell id="vVkB0DryfgJ7hiZi65OE-59" style="rounded=0;orthogonalLoop=1;jettySize=auto;html=1;exitX=1;exitY=0.5;exitDx=0;exitDy=0;entryX=0;entryY=0.5;entryDx=0;entryDy=0;" edge="1" parent="1" source="vVkB0DryfgJ7hiZi65OE-17" target="vVkB0DryfgJ7hiZi65OE-56">
          <mxGeometry relative="1" as="geometry">
            <mxPoint x="450" y="155" as="targetPoint" />
          </mxGeometry>
        </mxCell>
        <mxCell id="vVkB0DryfgJ7hiZi65OE-17" value="" style="ellipse;whiteSpace=wrap;html=1;aspect=fixed;" vertex="1" parent="1">
          <mxGeometry x="400" y="140" width="30" height="30" as="geometry" />
        </mxCell>
        <mxCell id="vVkB0DryfgJ7hiZi65OE-54" value="" style="ellipse;whiteSpace=wrap;html=1;aspect=fixed;" vertex="1" parent="1">
          <mxGeometry x="578.75" y="120" width="40" height="40" as="geometry" />
        </mxCell>
        <mxCell id="vVkB0DryfgJ7hiZi65OE-55" value="" style="ellipse;whiteSpace=wrap;html=1;aspect=fixed;" vertex="1" parent="1">
          <mxGeometry x="578.75" y="180" width="40" height="40" as="geometry" />
        </mxCell>
        <mxCell id="vVkB0DryfgJ7hiZi65OE-56" value="" style="ellipse;whiteSpace=wrap;html=1;aspect=fixed;" vertex="1" parent="1">
          <mxGeometry x="578.75" y="240" width="40" height="40" as="geometry" />
        </mxCell>
        <mxCell id="vVkB0DryfgJ7hiZi65OE-66" value="Reservoir" style="text;html=1;align=center;verticalAlign=middle;whiteSpace=wrap;rounded=0;" vertex="1" parent="1">
          <mxGeometry x="287.5" y="350" width="60" height="30" as="geometry" />
        </mxCell>
        <mxCell id="vVkB0DryfgJ7hiZi65OE-67" value="" style="rounded=0;whiteSpace=wrap;html=1;fillColor=none;" vertex="1" parent="1">
          <mxGeometry x="62.5" y="60" width="77.5" height="320" as="geometry" />
        </mxCell>
        <mxCell id="vVkB0DryfgJ7hiZi65OE-68" value="" style="rounded=0;whiteSpace=wrap;html=1;fillColor=none;" vertex="1" parent="1">
          <mxGeometry x="560" y="100" width="77.5" height="200" as="geometry" />
        </mxCell>
        <mxCell id="vVkB0DryfgJ7hiZi65OE-69" value="Input layer" style="text;html=1;align=center;verticalAlign=middle;whiteSpace=wrap;rounded=0;" vertex="1" parent="1">
          <mxGeometry x="71.25" y="380" width="60" height="30" as="geometry" />
        </mxCell>
        <mxCell id="vVkB0DryfgJ7hiZi65OE-70" value="Output Layer" style="text;html=1;align=center;verticalAlign=middle;whiteSpace=wrap;rounded=0;" vertex="1" parent="1">
          <mxGeometry x="560" y="300" width="80" height="30" as="geometry" />
        </mxCell>
        <mxCell id="vVkB0DryfgJ7hiZi65OE-71" value="" style="rounded=0;whiteSpace=wrap;html=1;fillColor=none;dashed=1;" vertex="1" parent="1">
          <mxGeometry x="410" y="100" width="140" height="200" as="geometry" />
        </mxCell>
        <mxCell id="vVkB0DryfgJ7hiZi65OE-72" value="Trained weight" style="text;html=1;align=center;verticalAlign=middle;whiteSpace=wrap;rounded=0;" vertex="1" parent="1">
          <mxGeometry x="450" y="70" width="80" height="30" as="geometry" />
        </mxCell>
      </root>
    </mxGraphModel>
  </diagram>
</mxfile>
